HIERARCHY
ROOT Hips
{
  OFFSET -33.9132 29.2015 117.021
  CHANNELS 6 Xposition Yposition Zposition Zrotation Xrotation Yrotation
  JOINT LeftUpLeg
  {
    OFFSET 8.64259 1.95398 -2.38835
    CHANNELS 3 Zrotation Xrotation Yrotation
    JOINT LeftLeg
    {
      OFFSET 43.7702 0 0
      CHANNELS 3 Zrotation Xrotation Yrotation
      JOINT LeftFoot
      {
        OFFSET 40.6238 0 0
        CHANNELS 3 Zrotation Xrotation Yrotation
        JOINT LeftToeBase
        {
          OFFSET 12.7242 0 0
          CHANNELS 3 Zrotation Xrotation Yrotation
          End Site
          {
            OFFSET 0 0 0
          }
        }
      }
    }
  }
  JOINT RightUpLeg
  {
    OFFSET -8.2249 1.95398 -2.59336
    CHANNELS 3 Zrotation Xrotation Yrotation
    JOINT RightLeg
    {
      OFFSET 43.5653 0 0
      CHANNELS 3 Zrotation Xrotation Yrotation
      JOINT RightFoot
      {
        OFFSET 40.6238 0 0
        CHANNELS 3 Zrotation Xrotation Yrotation
        JOINT RightToeBase
        {
          OFFSET 12.7242 0 0
          CHANNELS 3 Zrotation Xrotation Yrotation
          End Site
          {
            OFFSET 0 0 0
          }
        }
      }
    }
  }
  JOINT Spine
  {
    OFFSET 0.165834 0.87714 6.61349
    CHANNELS 3 Zrotation Xrotation Yrotation
    JOINT Spine1
    {
      OFFSET 7.38963 1.71661e-005 0
      CHANNELS 3 Zrotation Xrotation Yrotation
      JOINT Spine2
      {
        OFFSET 11.9445 1.14441e-005 0
        CHANNELS 3 Zrotation Xrotation Yrotation
        JOINT Spine3
        {
          OFFSET 14.7254 4.19617e-005 0
          CHANNELS 3 Zrotation Xrotation Yrotation
          JOINT Spine4
          {
            OFFSET 10.9679 0 0
            CHANNELS 3 Zrotation Xrotation Yrotation
            JOINT RightShoulder
            {
              OFFSET 2.46616 -1.6653 3.69651
              CHANNELS 3 Zrotation Xrotation Yrotation
              JOINT RightArm
              {
                OFFSET 13.0012 0 0
                CHANNELS 3 Zrotation Xrotation Yrotation
                JOINT RightForeArm
                {
                  OFFSET 28.7848 1.62311e-005 0
                  CHANNELS 3 Zrotation Xrotation Yrotation
                  JOINT RightHand
                  {
                    OFFSET 26.5688 1.62095e-005 0
                    CHANNELS 3 Zrotation Xrotation Yrotation
                    End Site
                    {
                      OFFSET 0 0 0
                    }
                  }
                }
              }
            }
            JOINT LeftShoulder
            {
              OFFSET 2.38034 -1.29275 -3.7523
              CHANNELS 3 Zrotation Xrotation Yrotation
              JOINT LeftArm
              {
                OFFSET 16.3182 6.07031e-005 0
                CHANNELS 3 Zrotation Xrotation Yrotation
                JOINT LeftForeArm
                {
                  OFFSET 27.0901 0 0
                  CHANNELS 3 Zrotation Xrotation Yrotation
                  JOINT LeftHand
                  {
                    OFFSET 24.5451 1.51738e-005 0
                    CHANNELS 3 Zrotation Xrotation Yrotation
                    End Site
                    {
                      OFFSET 0 0 0
                    }
                  }
                }
              }
            }
            JOINT Neck
            {
              OFFSET 5.0226 -0.0266342 0
              CHANNELS 3 Zrotation Xrotation Yrotation
              JOINT Head
              {
                OFFSET 6.69364 2.86102e-005 0
                CHANNELS 3 Zrotation Xrotation Yrotation
                End Site
                {
                  OFFSET 0 0 0
                }
              }
            }
          }
        }
      }
    }
  }
}
MOTION
Frames:	11
Frame Time:	0.0416667
296.076 87.3341 311.263 -77.7285 6.54533 -89.4437 -143.544 1.67782 117.771 2.20864 26.2836 -8.4446 -2.21931 -55.0516 -11.6429 167.86 24.4733 -35.5179 150.985 40.9831 98.5626 -60.9947 -0.437415 14.6504 88.8681 -17.1052 -3.2049 19.2392 1.31068 9.21788 -5.90723 14.8682 -94.3001 -3.62805 -13.1815 -9.5875 -15.2626 -13.5888 -8.99503 -37.841 -9.71547 -13.0882 -17.8284 -9.71548 -13.0882 80.4546 -55.3344 -113.23 14.6754 20.3497 -35.2682 -6.44182 -55.3042 -6.2475 -17.012 2.14564 -20.0929 110.002 -85.3466 -75.2767 0.69445 -42.6049 -107.338 21.8591 39.946 -37.3296 40.8898 -12.94 -31.683 140.065 -12.6959 -15.7925 -62.0038 26.101 4.88734 
288.85 86.4234 305.55 -74.7382 20.5849 -91.5432 -174.08 3.21963 101.456 -45.291 45.0411 9.95839 24.1653 -16.0484 -16.6464 41.4418 -41.9791 89.9536 158.239 37.3957 103.681 -61.6343 3.29627 8.98091 93.4571 -19.3937 2.4704 23.1176 0.276279 7.81561 -4.46691 13.9354 -93.4888 -1.43037 -10.1376 -7.46205 -13.0807 -10.4553 -7.00743 -35.6347 -7.43854 -10.155 -15.622 -7.43854 -10.1549 88.0535 -46.3417 -104.784 28.9512 8.57146 -47.5349 -8.81796 -68.726 -7.94168 -21.7541 -6.69847 53.3477 -3.44138 -84.0282 174.88 12.1651 -32.1689 -83.5802 21.1332 44.7209 -35.5833 46.3091 -14.6506 -30.8962 132.722 -2.94857 -12.7265 -53.6024 23.8157 0.117779 
282.562 83.4391 300.408 -69.5577 36.3941 -95.5687 -174.138 13.7159 98.3502 -70.9822 24.9257 3.78449 61.8478 1.91666 6.35867 -4.2013 -24.9535 3.29345 166.281 35.7978 106.313 -64.7219 3.21016 5.2863 101.984 -24.1345 6.75238 26.7068 -0.814197 6.67368 -2.19282 12.3734 -92.5924 1.95853 -5.37676 -5.17739 -9.71089 -5.59914 -4.93594 -32.207 -3.57605 -6.55015 -12.1944 -3.57605 -6.55016 95.3916 -36.4358 -94.5266 33.4597 3.79951 -53.3042 176.527 16.0568 176.587 -15.3009 -64.8644 -171.51 -43.785 -78.002 135.276 19.6476 -8.87384 -53.069 47.4741 49.8665 -59.1806 54.4878 -10.2771 -16.9707 116.548 10.3987 -4.51699 -44.952 18.1729 -6.53706 
274.855 82.6517 293.686 -65.1571 44.0305 -101.379 -172.254 34.3586 93.0597 -91.0081 6.06967 3.24644 69.0484 7.04411 8.49087 24.5363 4.17092 -12.7375 171.506 28.4338 103.025 -60.8836 -1.61124 2.80072 105.243 -28.5484 5.60079 30.342 -2.44761 7.83962 -0.456787 10.3197 -91.8378 6.18883 -1.68733 -3.55017 -5.4855 -1.84185 -3.47261 -27.9843 -0.543226 -3.89262 -7.97159 -0.543225 -3.89263 96.5232 -22.8771 -95.222 32.2751 -7.21664 -30.0965 10.2041 9.70334 -55.1262 -85.3754 -21.197 16.3747 -71.6107 -59.6023 105.704 2.65028 17.4088 -12.9851 53.594 44.3036 -63.998 51.6734 -11.8691 -21.261 83.6232 15.7304 7.58212 -31.3655 8.87379 -7.80403 
266.578 82.8908 285.29 -61.2722 45.8651 -108.535 -174.395 55.0525 90.2821 -93.9962 -1.59261 3.61077 80.1956 13.4785 5.65468 25.3769 1.73369 -7.40157 173.579 18.7349 97.8793 -52.6544 -4.66037 1.20129 101.64 -29.705 1.35963 37.9969 -4.8673 4.90113 1.21995 8.29469 -90.7184 10.2984 2.1021 -1.60822 -1.372 2.02928 -1.69917 -23.9177 2.4882 -0.901879 -3.90502 2.48819 -0.901893 93.9728 -15.1822 -103.927 29.3527 2.69481 8.67211 3.77629 -0.292868 -92.4123 -20.5459 -5.28469 24.2039 -82.9412 -35.2076 87.6963 -28.7979 36.7374 33.7795 53.0707 31.1679 -60.6248 60.0906 -14.8085 -22.295 41.939 3.13137 9.1933 -8.99105 -1.68988 -1.15098 
255.877 85.2171 273.394 -62.5194 36.9099 -111.059 177.03 67.9639 88.9605 -78.9584 3.00945 2.95159 85.2739 16.484 1.59753 26.5137 -0.342337 -1.58925 173.162 6.70774 93.8247 -37.5981 -8.52483 1.31552 79.9639 -15.8537 -6.44212 48.9731 -9.29887 9.70059 1.80325 7.52547 -89.9692 11.8614 3.60315 -0.263759 0.195383 3.58805 -0.422271 -22.3796 3.51582 0.832674 -2.36691 3.51583 0.83268 95.6112 -7.16868 -103.241 28.2536 1.27044 34.8653 18.7133 -7.5043 -109.545 -22.7178 -5.3366 21.701 -84.0745 -20.328 82.7249 -44.5073 44.7048 52.2104 51.1497 24.4781 -55.7606 64.5845 -17.7902 -24.9836 27.9985 -8.03935 4.92995 -0.509446 -9.43422 3.23325 
240.583 89.6545 259.581 -69.6375 37.2437 -115.884 -169.65 58.8371 72.4282 -55.2882 3.28048 -2.88152 86.3341 15.0877 -3.06881 22.2374 -1.99264 -2.10854 171.563 -11.7557 84.337 -23.7142 -19.9677 -4.30235 58.6906 0.304757 -5.54143 29.2132 -2.50499 10.576 2.6873 8.15868 -88.5644 10.4888 6.0106 2.28897 -1.16977 6.1055 2.02139 -23.7729 5.04467 3.9924 -3.76025 5.04467 3.9924 96.9884 -4.63199 -100.056 30.9808 -14.3635 55.4037 31.0183 -18.5725 -116.953 -31.759 -4.36594 10.663 -84.268 -16.6845 81.3234 -35.0539 45.5753 43.8537 52.8557 24.3926 -56.5833 64.167 -19.5238 -27.7137 25.4898 -15.1827 0.512136 -1.23645 -14.659 3.56326 
228.101 90.493 246.584 -70.4899 34.4508 -113.757 -165.803 54.5221 72.1804 -44.4465 11.8483 -7.79299 80.4036 12.6135 -1.15636 22.2139 -4.46638 2.87793 174.319 -9.84914 89.3412 -39.0296 -19.9826 -3.37993 61.2323 -0.629822 3.17131 16.3637 1.68647 11.1956 2.6953 8.04048 -88.5211 10.7339 6.04901 2.38576 -0.924547 6.14811 2.11639 -23.5276 5.05233 4.09618 -3.51496 5.05233 4.09617 94.9839 -12.0986 -102.621 36.1545 -17.3971 57.3109 23.5901 -11.6601 -113.675 -27.1704 -2.93916 7.09202 -85.3624 -27.1049 81.3776 -17.8047 39.0114 20.3922 58.6393 33.7508 -62.0827 66.2185 -17.2302 -22.6617 24.219 -17.0495 -2.35546 -0.48056 -15.4977 2.45694 
215.393 90.1672 233.738 -77.7053 30.43 -108.937 -168.44 41.6384 75.1521 -45.6052 8.3322 -7.57676 69.8156 6.0039 3.71333 30.07 4.36734 -9.78444 169.401 -1.02847 90.7283 -66.9163 -9.86127 0.494125 61.7866 -1.77397 -1.31633 15.5887 0.773095 14.4762 1.67929 8.34631 -88.5996 10.1351 3.98465 2.44538 -1.53169 4.08835 2.26749 -24.0804 3.06591 3.52985 -4.06775 3.06589 3.52984 92.7875 -21.9328 -103.969 46.6526 -13.9223 38.2524 4.94297 0.867411 -84.721 -24.9161 -3.71685 11.9287 -88.7539 -41.69 78.8326 -10.5973 24.2512 -3.95466 69.7859 46.1618 -73.2267 52.7019 -13.6986 -23.7458 22.9771 -15.5283 -9.25445 -0.700947 -11.7625 5.34422 
204.325 88.3886 221.83 -77.921 29.8187 -111.181 -166.915 31.3876 76.1811 -51.9803 6.98365 -6.48027 85.8581 16.3622 -1.7134 33.0745 2.78925 -2.35185 169.318 22.0283 91.1665 -95.8742 2.94272 -2.72431 70.0613 -8.47205 -3.30538 17.6803 0.748646 12.5565 0.566181 8.11906 -88.2993 10.6007 1.90938 3.20202 -1.07281 2.04836 3.11498 -23.5779 0.8596 3.62726 -3.56529 0.859618 3.62726 92.785 -25.4252 -102.624 56.2594 -5.34256 37.0429 -15.7943 -8.90209 -58.2959 -11.0037 -1.01777 -0.217991 -90.811 -45.8648 76.4997 -6.01273 17.6151 -38.2443 84.5172 52.6586 -88.2201 17.8696 -4.10482 -29.5869 21.611 -11.1867 -9.28111 -2.17186 -7.76019 1.91147 
191.885 87.4129 210.194 -82.1323 27.9245 -105.442 -171.019 15.3388 86.8312 -46.7719 7.38477 -3.13739 94.2833 21.9117 -4.71117 42.0274 5.14542 2.23208 175.803 41.3113 88.9977 -106.251 -2.86483 -3.97052 73.7342 -11.4736 -6.82926 18.3414 0.749573 11.8192 -1.20694 8.25439 -88.8516 10.3786 -1.87805 2.44845 -1.29374 -1.76853 2.52867 -23.827 -2.527 1.77108 -3.81431 -2.52701 1.77107 94.4317 -21.3748 -100.44 54.2184 6.21391 34.0843 -21.5323 -37.0241 -31.4377 -28.778 12.106 -33.2221 -87.8699 -32.9641 78.2943 -8.83739 1.57201 -62.946 88.5316 52.8518 -91.4512 59.5379 -9.34631 -11.9305 20.9247 -3.97329 -7.46378 -1.27652 -1.41085 1.15685 
